<svg width="130" height="62" viewBox="0 0 130 62" fill="none" xmlns="http://www.w3.org/2000/svg">
<path d="M18.9641 10.0688L23.1277 19.9885H14.6926L18.9641 10.0688Z" fill="#395285"/>
<path d="M19.3857 0C8.67898 0 0 8.67898 0 19.3892C0 30.0959 8.67898 38.7749 19.3857 38.7749C30.0925 38.7749 38.7714 30.0959 38.7714 19.3892C38.7714 8.67898 30.0925 0 19.3857 0ZM33.0087 29.3956H23.2531V28.8312C24.2984 28.7824 24.9377 28.6187 25.2826 28.3399C25.6237 28.0647 25.8216 27.7267 25.8216 27.3261C25.8216 26.7965 25.5896 26.0073 25.1088 24.861L23.6364 21.3821H14.1316L12.4662 25.206C12.0551 26.1606 11.853 26.8463 11.853 27.3163C11.853 27.6891 11.9558 28.0076 12.3112 28.2898C12.6669 28.5755 13.4975 28.7476 14.5428 28.8312V29.3956H6.87768V28.8312C7.92292 28.65 8.61104 28.4131 8.91067 28.1239C9.52736 27.5456 10.2319 26.3261 10.9778 24.5527L19.6369 4.30987H20.2676L28.8141 24.7687C29.5005 26.4097 30.1137 27.4968 30.6747 27.9846C31.2356 28.4758 31.9638 28.7685 33.009 28.8312V29.3956H33.0087Z" fill="#395285"/>
<path d="M55.7437 29.4998L46.2585 8.84588V25.2457C46.2585 26.7543 46.4216 27.6957 46.7473 28.0696C47.1937 28.5765 47.8995 28.8298 48.8653 28.8298H49.7343V29.4995H41.1905V28.8298H42.0594C43.0974 28.8298 43.8332 28.5163 44.2677 27.8884C44.5328 27.5024 44.6659 26.6212 44.6659 25.2457V9.20788C44.6659 8.12188 44.545 7.3376 44.3039 6.8547C44.1349 6.50489 43.8241 6.21222 43.3716 5.97669C42.919 5.74152 42.1918 5.62375 41.1905 5.62375V4.9541H48.1413L57.0475 24.1597L65.8087 4.9541H72.7595V5.62375H71.9091C70.8589 5.62375 70.1165 5.93767 69.6823 6.56482C69.4169 6.95121 69.2841 7.832 69.2841 9.20753V25.2453C69.2841 26.754 69.4527 27.6954 69.791 28.0692C70.2367 28.5762 70.9432 28.8295 71.9087 28.8295H72.7592V29.4991H62.3326V28.8295H63.2015C64.2513 28.8295 64.9871 28.5159 65.4097 27.8881C65.6749 27.502 65.808 26.6209 65.808 25.2453V8.84553L56.3409 29.4995H55.7437V29.4998Z" fill="#395285"/>
<path d="M86.8309 28.8302V29.4998H76.3137V28.8302H77.1826C78.1965 28.8302 78.932 28.5347 79.3908 27.9431C79.6807 27.5571 79.8257 26.6282 79.8257 25.1555V9.29847C79.8257 8.05568 79.7466 7.23482 79.5901 6.83658C79.4696 6.5352 79.2219 6.27563 78.8477 6.05822C78.317 5.76869 77.7617 5.62375 77.1826 5.62375H76.3137V4.9541H86.8309V5.62375H85.9442C84.9425 5.62375 84.2122 5.91955 83.7537 6.51046C83.4523 6.89685 83.3011 7.82607 83.3011 9.29812V25.1551C83.3011 26.3982 83.3795 27.2188 83.5366 27.617C83.6572 27.9187 83.9101 28.1783 84.2969 28.3954C84.8153 28.6852 85.3651 28.8298 85.9445 28.8298H86.8309V28.8302Z" fill="#395285"/>
<path d="M90.2231 29.4998V28.8302H91.1464C92.1843 28.8302 92.9205 28.4985 93.3546 27.8348C93.6201 27.4365 93.7529 26.5435 93.7529 25.1558V9.29847C93.7529 7.76615 93.5842 6.80662 93.2466 6.42023C92.7756 5.88959 92.0756 5.62375 91.1467 5.62375H90.2234V4.9541H100.216C103.884 4.9541 106.675 5.37046 108.588 6.20282C110.5 7.03552 112.039 8.4236 113.204 10.3664C114.368 12.3095 114.951 14.5539 114.951 17.1001C114.951 20.5153 113.912 23.3695 111.837 25.6621C109.508 28.2205 105.96 29.4995 101.193 29.4995H90.2231V29.4998ZM97.229 27.7261C98.7613 28.064 100.046 28.233 101.085 28.233C103.884 28.233 106.207 27.2494 108.053 25.2823C109.9 23.3155 110.823 20.6484 110.823 17.2817C110.823 13.8906 109.9 11.2175 108.053 9.26258C106.207 7.30763 103.836 6.32999 100.94 6.32999C99.8536 6.32999 98.6164 6.50489 97.229 6.85504V27.7261Z" fill="#395285"/>
<path d="M129.656 28.8302V29.4998H119.139V28.8302H120.007C121.021 28.8302 121.757 28.5347 122.216 27.9431C122.506 27.5571 122.65 26.6282 122.65 25.1555V9.29847C122.65 8.05568 122.571 7.23482 122.415 6.83658C122.294 6.5352 122.046 6.27563 121.673 6.05822C121.141 5.76869 120.587 5.62375 120.007 5.62375H119.139V4.9541H129.656V5.62375H128.768C127.767 5.62375 127.036 5.91955 126.579 6.51046C126.276 6.89685 126.126 7.82607 126.126 9.29812V25.1551C126.126 26.3982 126.204 27.2188 126.361 27.617C126.482 27.9187 126.735 28.1783 127.122 28.3954C127.64 28.6852 128.189 28.8298 128.769 28.8298H129.656V28.8302Z" fill="#395285"/>
<path d="M19.7219 53.093C19.4993 53.1209 19.1997 53.1651 18.8237 53.2257C18.4478 53.2864 18.1436 53.3721 17.9116 53.4829C17.6332 53.6222 17.4356 53.8198 17.3196 54.0748C17.2036 54.3299 17.1454 54.6295 17.1454 54.973V56.5043C17.1454 57.6182 17.1524 58.3701 17.1663 58.7603C17.1803 59.1505 17.1963 59.4707 17.2151 59.7212C15.9803 60.2787 14.7504 60.7051 13.525 61.0027C12.2997 61.2995 11.0973 61.4476 9.91862 61.4476C8.65597 61.4476 7.44001 61.2107 6.27038 60.7372C5.10076 60.2637 4.07956 59.5905 3.20713 58.7167C2.32495 57.8349 1.62429 56.7618 1.10446 55.4981C0.584275 54.2351 0.324707 52.823 0.324707 51.2628C0.324707 49.7576 0.572777 48.3619 1.06961 47.0755C1.5661 45.7889 2.2692 44.6722 3.17926 43.7242C4.06109 42.7953 5.11226 42.0734 6.3331 41.5581C7.55359 41.0424 8.86049 40.7842 10.2527 40.7842C11.3666 40.7842 12.3366 40.9191 13.163 41.1877C13.9891 41.457 14.7177 41.7817 15.349 42.1629L15.92 41.2156H17.0339L17.159 48.1218H16.0183C15.8228 47.3609 15.5814 46.6111 15.2932 45.8735C15.0051 45.1352 14.6334 44.4736 14.178 43.8893C13.7226 43.305 13.1676 42.8378 12.5122 42.4901C11.8568 42.1417 11.0743 41.9675 10.1632 41.9675C9.16883 41.9675 8.28142 42.1695 7.50063 42.5737C6.72018 42.9779 6.04147 43.5796 5.4652 44.3785C4.89833 45.1495 4.46177 46.1111 4.15482 47.263C3.84786 48.4148 3.69491 49.7019 3.69491 51.1227C3.69491 52.377 3.84612 53.5588 4.14785 54.6696C4.44992 55.7796 4.88892 56.7384 5.46555 57.5468C6.04147 58.3735 6.76199 59.024 7.62641 59.4979C8.49082 59.9717 9.47126 60.2083 10.5684 60.2083C11.3865 60.2083 12.1321 60.0832 12.8063 59.8327C13.4801 59.5822 13.9564 59.3174 14.2355 59.0394C14.3097 58.5561 14.3494 58.069 14.3539 57.5771C14.3585 57.0851 14.3609 56.6674 14.3609 56.3235V55.2375C14.3609 54.8476 14.3072 54.502 14.2006 54.2002C14.094 53.8985 13.8735 53.6783 13.5393 53.539C13.2331 53.3996 12.8174 53.2954 12.2931 53.2261C11.7687 53.1561 11.3576 53.1125 11.0607 53.0933V52.0774H19.7219V53.093Z" fill="#395285"/>
<path d="M48.2246 60.9744H42.904C41.726 59.1268 40.6619 57.5304 39.7115 56.1845C38.7607 54.8385 37.7293 53.4508 36.6165 52.0213H34.5926V58.2871C34.5926 58.6119 34.6435 58.8975 34.7455 59.1432C34.8476 59.3895 35.0657 59.5773 35.3999 59.7073C35.5667 59.7721 35.8594 59.8323 36.2772 59.8884C36.6949 59.9442 37.0475 59.9769 37.3356 59.9856V60.9744H28.9814V59.9856C29.2044 59.9672 29.5267 59.9348 29.9493 59.8884C30.3716 59.8421 30.6663 59.7815 30.8336 59.7073C31.1119 59.5867 31.314 59.4097 31.4391 59.1777C31.5645 58.9456 31.6272 58.6488 31.6272 58.2868V44.0004C31.6272 43.675 31.5805 43.3872 31.4882 43.1367C31.3952 42.8862 31.1771 42.6956 30.8339 42.5657C30.6015 42.4821 30.2998 42.4058 29.9287 42.3357C29.5573 42.2664 29.2416 42.2228 28.9817 42.2037V41.2149H38.1022C38.9376 41.2149 39.7219 41.3013 40.4553 41.4727C41.1884 41.6441 41.8521 41.9204 42.4465 42.3009C43.0221 42.6723 43.4817 43.1576 43.8252 43.7565C44.1684 44.3548 44.3405 45.0767 44.3405 45.9212C44.3405 46.6829 44.2245 47.3557 43.9924 47.9403C43.76 48.5256 43.4168 49.0312 42.9618 49.4583C42.5441 49.8573 42.0427 50.2029 41.4581 50.4956C40.8731 50.7882 40.2278 51.0366 39.5226 51.2408C40.4971 52.531 41.3072 53.617 41.9525 54.4992C42.5977 55.381 43.389 56.4534 44.3266 57.7157C44.7349 58.2725 45.1039 58.6833 45.4335 58.9481C45.7627 59.2122 46.0902 59.4278 46.4153 59.5951C46.6564 59.7156 46.9585 59.8087 47.3205 59.8735C47.6825 59.939 47.9839 59.9762 48.2256 59.9849V60.9744H48.2246ZM40.9006 46.2501C40.9006 45.0544 40.5571 44.1074 39.87 43.4071C39.1829 42.7075 38.2129 42.3577 36.9597 42.3577H34.5926V50.8238H36.4165C37.6976 50.8238 38.7648 50.414 39.6191 49.5935C40.4731 48.7734 40.9006 47.6588 40.9006 46.2501Z" fill="#395285"/>
<path d="M72.6466 43.5552C73.5191 44.4649 74.2016 45.5628 74.6936 46.848C75.1855 48.134 75.4319 49.5563 75.4319 51.1161C75.4319 52.6847 75.1807 54.1097 74.68 55.3911C74.1786 56.6719 73.4821 57.7628 72.5916 58.6631C71.7279 59.5547 70.7258 60.2411 69.5837 60.7236C68.442 61.2069 67.2257 61.4476 65.9355 61.4476C64.5617 61.4476 63.2921 61.1905 62.1273 60.6752C60.9623 60.1599 59.962 59.4428 59.1265 58.5234C58.2913 57.6231 57.6342 56.5301 57.1562 55.2448C56.6778 53.9588 56.4391 52.5826 56.4391 51.1161C56.4391 49.5103 56.6897 48.0783 57.191 46.8202C57.692 45.5628 58.3836 44.474 59.2658 43.5552C60.1382 42.6455 61.1525 41.9494 62.3082 41.4668C63.4639 40.9836 64.6729 40.7428 65.9355 40.7428C67.2441 40.7428 68.4786 40.9884 69.6395 41.4804C70.7997 41.9724 71.8021 42.664 72.6466 43.5552ZM70.5725 57.5632C71.0917 56.7179 71.47 55.7619 71.707 54.6943C71.9439 53.6271 72.0624 52.4345 72.0624 51.1161C72.0624 49.7604 71.9303 48.5166 71.6655 47.3843C71.4007 46.2519 71.0129 45.2865 70.5025 44.4879C69.9921 43.6991 69.3517 43.0841 68.5814 42.643C67.8103 42.202 66.9285 41.9818 65.9355 41.9818C64.8216 41.9818 63.8746 42.2368 63.0949 42.7472C62.3151 43.2576 61.6793 43.9402 61.1873 44.7942C60.7229 45.6115 60.3773 46.5676 60.1497 47.6623C59.9222 48.758 59.8087 49.9092 59.8087 51.1158C59.8087 52.4523 59.9292 53.6595 60.1707 54.7361C60.4118 55.8127 60.7926 56.7688 61.3124 57.6043C61.8134 58.4209 62.4447 59.0592 63.206 59.5184C63.967 59.9784 64.877 60.208 65.9352 60.208C66.9285 60.208 67.8243 59.9766 68.6225 59.5118C69.421 59.0481 70.0712 58.3983 70.5725 57.5632Z" fill="#395285"/>
<path d="M105.591 42.2044C105.331 42.2138 104.951 42.2699 104.45 42.3716C103.948 42.4737 103.54 42.6267 103.224 42.8308C102.908 43.0444 102.69 43.4855 102.57 44.1537C102.449 44.822 102.389 45.6387 102.389 46.6041V55.1953C102.389 56.2911 102.161 57.2422 101.706 58.0499C101.251 58.8575 100.653 59.5212 99.91 60.041C99.1769 60.5421 98.4042 60.902 97.592 61.1204C96.7795 61.3382 96.0022 61.4472 95.2597 61.4472C94.0713 61.4472 93.0132 61.2922 92.085 60.9811C91.1568 60.6699 90.3771 60.2501 89.7457 59.7209C89.1238 59.192 88.6549 58.5864 88.3395 57.9039C88.0239 57.2213 87.866 56.5088 87.866 55.7664V44.0837C87.866 43.759 87.8127 43.4876 87.7061 43.2691C87.5992 43.0514 87.3831 42.8493 87.0588 42.6636C86.8264 42.5336 86.5295 42.4294 86.1672 42.3507C85.8052 42.2716 85.508 42.2235 85.2759 42.2044V41.2156H93.5051V42.2044C93.2452 42.2138 92.918 42.2552 92.5236 42.3295C92.1292 42.4037 91.839 42.4737 91.6536 42.5385C91.338 42.65 91.1265 42.8354 91.0199 43.0953C90.9133 43.3545 90.86 43.6377 90.86 43.944V54.8518C90.86 55.3807 90.9178 55.935 91.0338 56.5148C91.1498 57.0945 91.3795 57.6342 91.7233 58.1349C92.0853 58.6453 92.5773 59.0631 93.1992 59.3878C93.8211 59.7125 94.6751 59.8742 95.7614 59.8742C96.7826 59.8742 97.639 59.7121 98.3306 59.3878C99.0219 59.0631 99.5675 58.6366 99.9664 58.1077C100.347 57.6067 100.616 57.083 100.774 56.535C100.932 55.988 101.011 55.4361 101.011 54.8793V46.7822C101.011 45.7526 100.936 44.9108 100.788 44.2569C100.639 43.6029 100.421 43.1737 100.133 42.9695C99.8083 42.7381 99.3651 42.557 98.8038 42.427C98.2421 42.2977 97.8126 42.2235 97.5157 42.2044V41.2156H105.592V42.2044H105.591Z" fill="#395285"/>
<path d="M130 46.0895C130 47.1198 129.798 48.0316 129.394 48.826C128.991 49.6193 128.431 50.2761 127.716 50.7959C127.011 51.3157 126.236 51.6962 125.391 51.9377C124.546 52.1791 123.651 52.2997 122.704 52.2997H120.49V58.2875C120.49 58.6122 120.543 58.8979 120.65 59.1435C120.757 59.3899 120.977 59.5777 121.311 59.7076C121.478 59.7724 121.773 59.8327 122.196 59.8888C122.618 59.9446 123.005 59.9773 123.358 59.986V60.9748H114.878V59.986C115.101 59.9675 115.423 59.9351 115.846 59.8888C116.268 59.8425 116.563 59.7818 116.73 59.7076C117.009 59.5871 117.21 59.4101 117.336 59.178C117.461 58.946 117.524 58.6492 117.524 58.2872V44.0287C117.524 43.7033 117.477 43.4116 117.385 43.1507C117.292 42.8915 117.073 42.696 116.73 42.566C116.377 42.4455 116.027 42.3598 115.679 42.3089C115.331 42.258 115.031 42.2232 114.781 42.204V41.2152H123.803C125.641 41.2152 127.134 41.6588 128.28 42.5448C129.426 43.4322 130 44.6133 130 46.0895ZM125.767 49.4594C126.082 49.0138 126.291 48.5518 126.394 48.0738C126.496 47.5954 126.547 47.1665 126.547 46.7857C126.547 46.2561 126.484 45.7181 126.358 45.1701C126.233 44.6231 126.017 44.1447 125.711 43.7364C125.386 43.3001 124.959 42.9611 124.43 42.7197C123.901 42.4789 123.242 42.3577 122.453 42.3577H120.489V51.0886H121.909C122.912 51.0886 123.727 50.9328 124.353 50.6217C124.98 50.3106 125.451 49.9235 125.767 49.4594Z" fill="#395285"/>
</svg>
