<svg xmlns="http://www.w3.org/2000/svg" id="Layer_1" data-name="Layer 1" width="8192" height="3571.1" viewBox="0 0 8192 3571.1"><path id="B" d="M0,341.83H1082.51c168.31,0,493.15,0,713.72,136.29C2060.84,646.51,2121,927.22,2121,1095.61c0,108.25-20.07,296.72-168.39,433-20.07,24.05-160.35,152.38-328.82,196.42v8c441.05,80.21,613.43,401,613.43,705.67,0,340.76-200.5,569.29-425,681.53-224.54,116.29-617.4,116.29-729.72,116.29H0ZM593.35,1520.57h433.09c176.43,0,497.13,0,497.13-372.87,0-360.83-304.68-360.83-509.16-360.83H593.35Zm0,1251h421.06c381.89,0,605.38,0,605.38-388.88,0-413-373-413-669.66-413H593.35Z" fill="#424242"></path><path id="V" d="M6047.53,334.44l761.91,2285.47L7575.32,334.44H8192L7119.73,3236.66H6438.52L5366.41,334.44Z" fill="#424242"></path><path d="M3963.69,342c-806.93,0-1461.07,647.16-1461.07,1445.39s654.14,1445.46,1461.07,1445.46c604.73,0,1123.56-363.52,1345.59-881.69H4649.53c-163.6,194.72-409.93,318.74-685.84,318.74-492.65,0-892-395.14-892-882.51S3471,905,3963.69,905c273.31,0,517.69,121.74,681.29,313.3h661.78C5083.35,703,4566.23,342,3963.69,342Z" fill="#424242"></path><path d="M5406.23,1551.61H4171.42v471.61H5405a1443.89,1443.89,0,0,0,1.22-471.61Z" fill="#0014ff"></path></svg>