<svg width="100" height="26" viewBox="0 0 100 26" fill="none" xmlns="http://www.w3.org/2000/svg">
<g clip-path="url(#clip0_2300_115)">
<path d="M0 24.9223C0.15725 24.9223 0.3145 24.9281 0.47175 24.9223C0.895728 24.9066 1.0908 24.7655 1.13658 24.3462C1.19828 23.7643 1.23809 23.1765 1.24009 22.5907C1.25004 19.5715 1.23411 16.5522 1.25402 13.533C1.258 12.8531 1.03705 12.2908 0.607104 11.7872C0.447864 11.5991 0.278671 11.4209 0.0995253 11.221C0.879804 10.4569 1.66008 9.6908 2.44235 8.92668C2.62747 8.74643 2.78472 8.8875 2.87827 9.01877C3.18879 9.44785 3.51125 9.87694 3.75807 10.3413C3.96509 10.7331 4.07456 11.1779 4.2358 11.6207C4.28954 11.558 4.35921 11.4855 4.4229 11.4071C5.18726 10.5019 6.02327 9.67317 7.12999 9.18531C9.03092 8.34674 10.9398 8.33302 12.8009 9.29699C13.7982 9.81424 14.4491 10.6665 14.9069 11.6658C14.9407 11.7383 14.9726 11.8127 15.0223 11.9224C15.094 11.8382 15.1497 11.7735 15.2035 11.7069C15.9937 10.7547 16.8536 9.8789 17.9703 9.28327C19.1925 8.63279 20.4982 8.49368 21.8518 8.64063C22.9028 8.75623 23.8682 9.09322 24.6882 9.77114C25.6556 10.5705 26.1771 11.6266 26.4717 12.808C26.6967 13.7073 26.7703 14.6262 26.7703 15.551C26.7703 18.39 26.7703 21.231 26.7703 24.07C26.7703 24.8811 26.7922 24.9046 27.6143 24.9301C27.7795 24.936 27.9447 24.9301 28.1298 24.9301V25.8275H21.7065V24.9419C21.7761 24.9379 21.8478 24.9301 21.9194 24.9281C22.1523 24.9223 22.3832 24.9281 22.6161 24.9125C23.275 24.8694 23.5218 24.644 23.5835 23.9994C23.6213 23.6095 23.6452 23.2177 23.6452 22.8278C23.6452 20.0946 23.6552 17.3614 23.6293 14.6282C23.6193 13.6838 23.3984 12.7688 22.9326 11.9283C22.3156 10.8154 21.3462 10.261 20.0723 10.1865C18.4381 10.0905 17.1741 10.7547 16.1649 11.9812C15.3767 12.9393 15.3687 12.9315 15.3687 14.1658C15.3687 17.381 15.3687 20.5962 15.3707 23.8114C15.3707 24.0308 15.3926 24.2502 15.4165 24.4677C15.4443 24.7009 15.5956 24.84 15.8225 24.8654C16.135 24.9007 16.4495 24.9125 16.762 24.9321C16.8417 24.9379 16.9233 24.9321 17.0188 24.9321V25.8333H10.5616V24.9144C10.8184 24.9144 11.0712 24.9242 11.326 24.9144C11.949 24.887 12.1361 24.7205 12.1839 24.1052C12.2237 23.5939 12.2436 23.0786 12.2456 22.5652C12.2496 19.9947 12.2496 17.4241 12.2416 14.8535C12.2376 13.9856 12.1242 13.1274 11.8037 12.3104C11.1787 10.7155 9.98239 10.0298 8.25463 10.1963C6.89312 10.3276 5.89986 11.0388 5.05389 12.0184C4.56821 12.5801 4.32537 13.2332 4.32537 13.9777C4.32537 17.5181 4.32537 21.0605 4.32537 24.6009V24.9223H5.9536V25.847H0V24.9164V24.9223Z" fill="#1C2945"/>
<path d="M32.6507 13.5272C32.0188 12.8745 31.3828 12.2218 30.7548 11.5612C30.5547 11.3508 30.626 10.9419 30.8915 10.7768C31.8107 10.2067 32.7953 9.77021 33.8117 9.40453C35.143 8.92484 36.498 8.5513 37.9304 8.56507C38.9209 8.57293 39.8897 8.71055 40.7832 9.16469C42.1125 9.83901 42.8118 10.9852 43.0971 12.383C43.2496 13.132 43.3368 13.9066 43.3467 14.6694C43.3784 17.2232 43.3546 19.777 43.3685 22.3308C43.3705 22.7692 43.4577 23.2076 43.5072 23.646C43.5131 23.6932 43.531 23.7404 43.5468 23.7876C43.7152 24.3027 43.9311 24.3951 44.4106 24.1493C44.5909 24.342 44.7751 24.5386 44.9772 24.7548C44.3571 25.2522 43.6716 25.6847 42.8554 25.8853C42.4374 25.9875 42.0174 25.9777 41.6073 25.8636C40.7891 25.6356 40.3988 25.0281 40.2978 24.2476C40.2146 23.6087 40.2225 22.9599 40.1928 22.3131C40.1888 22.2246 40.1928 22.1362 40.1928 21.9907C40.1116 22.0811 40.064 22.1303 40.0224 22.1833C39.0319 23.4278 37.9007 24.515 36.4861 25.2817C35.0082 26.0838 33.463 26.2293 31.8821 25.6415C30.4913 25.1244 29.8118 24.0589 29.6909 22.6218C29.5562 21.0215 30.3328 19.8261 31.466 18.8058C32.6507 17.7383 34.0316 16.9676 35.4758 16.3189C36.9755 15.6445 38.499 15.0252 40.0185 14.3902C40.1928 14.3175 40.2483 14.233 40.2344 14.0462C40.1611 13.075 40.0997 12.1018 39.7887 11.168C39.4004 10.0061 38.7109 9.5166 37.4767 9.47138C36.0384 9.42026 34.9864 10.0435 34.2574 11.2408C33.9682 11.7165 33.7185 12.2139 33.4471 12.6995C33.2748 13.0101 33.0687 13.2932 32.6527 13.5232L32.6507 13.5272ZM40.2839 15.2081C40.1235 15.2808 39.9887 15.3378 39.858 15.3988C39.0873 15.7507 38.3207 16.1085 37.548 16.4565C36.4148 16.9676 35.2797 17.4689 34.2416 18.1629C33.144 18.8982 32.6151 19.893 32.5972 21.22C32.5715 23.1978 34.925 24.686 36.6744 23.6873C38.1047 22.8714 39.2538 21.7685 40.1274 20.3845C40.2225 20.2351 40.274 20.0326 40.276 19.8537C40.2899 18.8471 40.2819 17.8405 40.2819 16.8339C40.2819 16.3031 40.2819 15.7743 40.2819 15.2061L40.2839 15.2081Z" fill="#1C2945"/>
<path d="M52.8182 24.9455V25.847H46.5215V24.9593C46.764 24.9415 47.0086 24.9277 47.2531 24.904C47.5713 24.8744 47.79 24.6969 47.8456 24.3931C47.9331 23.9097 48.0286 23.4205 48.0305 22.9332C48.0504 19.6642 48.0524 16.3933 48.0445 13.1243C48.0445 12.4398 47.6269 11.9288 47.1915 11.4494C47.0881 11.335 46.9509 11.2521 46.8118 11.1436C47.6349 10.3308 48.4023 9.57128 49.1698 8.81175C49.311 8.67168 49.4283 8.77821 49.5078 8.86896C49.7603 9.16093 50.0207 9.45094 50.2275 9.77448C50.4502 10.1256 50.6152 10.5123 50.7862 10.8437C51.2912 10.4472 51.7803 9.99741 52.3291 9.64033C53.8262 8.66576 55.4764 8.25344 57.2658 8.4665C57.4428 8.4882 57.6197 8.55133 57.7828 8.6263C58.1506 8.79399 58.2241 9.26155 57.9398 9.54563C57.3672 10.1158 56.7886 10.68 56.222 11.2561C56.0987 11.3823 56.0132 11.3823 55.8661 11.2975C55.2319 10.9365 54.5678 10.6622 53.8401 10.5261C52.2873 10.2381 51.3926 11.4395 51.1819 12.424C51.1461 12.5917 51.1302 12.7653 51.1302 12.9369C51.1282 16.8628 51.1282 20.7907 51.1282 24.7166V24.9395H52.8182V24.9455Z" fill="#1C2945"/>
<path d="M62.9333 0C62.9313 0.0902247 62.9253 0.178488 62.9253 0.268713C62.9253 6.28043 62.9253 12.2921 62.9253 18.3039C62.9253 18.3921 62.9253 18.4804 62.9253 18.6138C63.0109 18.5412 63.0667 18.5 63.1164 18.4529C65.0234 16.566 66.9363 14.6831 68.8293 12.7845C69.2453 12.3667 69.5956 11.8881 69.9679 11.4291C70.2426 11.0878 70.2286 10.521 69.7489 10.217C69.4782 10.0444 69.2393 9.82469 68.9766 9.64032C68.8472 9.54813 68.7974 9.4481 68.8074 9.29315C68.8213 9.07543 68.8114 8.85575 68.8114 8.62039H75.7245V9.46771C75.3065 9.53832 74.8845 9.57755 74.4804 9.68347C73.4712 9.94433 72.6153 10.4994 71.8668 11.1918C70.7621 12.2137 69.7051 13.2866 68.6243 14.334C68.4471 14.5046 68.252 14.6576 68.0689 14.8184C68.6163 15.6834 69.1139 16.4896 69.6335 17.2859C70.7004 18.9178 71.7594 20.5555 72.8581 22.1678C73.3896 22.9465 74.0266 23.6526 74.777 24.243C75.2368 24.6059 75.7345 24.8863 76.3535 24.9216V25.8317H76.0888C75.2428 25.8317 74.3948 25.7945 73.5508 25.8415C72.4063 25.9043 71.5583 25.4277 70.8616 24.5882C69.9599 23.5035 69.2513 22.2934 68.5267 21.0969C67.7066 19.7455 66.8865 18.3921 66.0664 17.0407C66.0385 16.9936 66.0007 16.9505 65.9908 16.9368C65.4772 17.4232 64.9637 17.8978 64.464 18.3843C63.9823 18.855 63.5126 19.3395 63.0428 19.8239C62.9851 19.8828 62.9313 19.975 62.9313 20.0515C62.9273 21.652 62.9313 23.2525 62.9333 24.855C62.9333 24.8628 62.9393 24.8706 62.9512 24.904H64.6113V25.816H58.6457V24.9079C58.789 24.9079 58.9204 24.9138 59.0498 24.9079C59.3901 24.8883 59.5792 24.7588 59.6509 24.4274C59.7246 24.0861 59.7644 23.735 59.7883 23.3859C59.8141 22.9877 59.8082 22.5856 59.8082 22.1855C59.8082 15.8148 59.8082 9.44221 59.8082 3.07156C59.8082 2.68909 59.7883 2.30465 59.7524 1.92218C59.6847 1.23176 59.3961 0.953244 58.6935 0.89244C58.4645 0.872826 58.2317 0.888518 57.9609 0.888518V0C59.6171 0 61.2752 0 62.9333 0Z" fill="#1C2945"/>
<path d="M92.7388 0C92.7408 0.105883 92.7467 0.211767 92.7467 0.31765C92.7467 7.51184 92.7467 14.706 92.7507 21.9002C92.7507 22.5689 92.7686 23.2394 92.8322 23.9042C92.9038 24.6551 93.1046 24.8081 93.8622 24.8277C93.9437 24.8297 94.0233 24.8277 94.1127 24.8277C94.1207 24.8885 94.1286 24.9277 94.1286 24.9669C94.1286 25.2101 94.1286 25.4552 94.1286 25.7159H90.0028C89.8735 24.8453 89.7443 23.9728 89.621 23.1434C89.0583 23.5904 88.5433 24.1002 87.9369 24.4669C85.5926 25.8846 83.0872 26.2983 80.4825 25.2924C78.1859 24.4042 76.7741 22.6571 76.1995 20.3277C75.3704 16.9727 76.2194 14.006 78.6392 11.5099C80.2478 9.85108 82.2382 8.87852 84.5427 8.54714C86.2646 8.30008 87.8673 8.63146 89.3486 9.52951C89.4321 9.58049 89.5156 9.62951 89.627 9.69617C89.6349 9.61186 89.6449 9.56088 89.6449 9.50794C89.6449 7.28635 89.6449 5.06672 89.6349 2.84513C89.6349 2.51963 89.6031 2.19218 89.5574 1.87061C89.4599 1.20001 89.1895 0.949029 88.5016 0.888244C88.255 0.866675 88.0065 0.884322 87.7142 0.884322V0H92.7348H92.7388ZM89.6489 17.1943C89.6489 15.8217 89.6489 14.4511 89.6449 13.0786C89.6449 12.9805 89.631 12.8531 89.5693 12.7884C88.6686 11.8354 87.6903 10.9785 86.5092 10.3609C84.2743 9.19421 80.7469 9.77853 79.5082 12.8962C79.0667 14.006 78.8878 15.159 78.85 16.3394C78.7923 18.2257 79.1562 20.012 80.212 21.6159C81.2778 23.2355 82.7711 24.1846 84.7634 24.1983C86.7796 24.212 88.3306 23.2983 89.4918 21.7081C89.5852 21.5806 89.6409 21.3963 89.6409 21.2394C89.6528 19.8924 89.6469 18.5453 89.6469 17.1962L89.6489 17.1943Z" fill="#1C2945"/>
<path d="M98.5321 2.79148C99.279 2.79148 99.8845 2.19222 99.8845 1.45299C99.8845 0.713764 99.279 0.114502 98.5321 0.114502C97.7852 0.114502 97.1797 0.713764 97.1797 1.45299C97.1797 2.19222 97.7852 2.79148 98.5321 2.79148Z" stroke="white" stroke-width="0.695518"/>
<path d="M98.5669 1.52959H98.2325V2.13101H97.916V0.59729H98.6763C98.7849 0.599371 98.8685 0.612551 98.9271 0.63683C98.9856 0.661108 99.0352 0.696833 99.0759 0.744003C99.1095 0.782849 99.1361 0.825857 99.1558 0.873027C99.1754 0.920197 99.1852 0.973957 99.1852 1.03431C99.1852 1.10714 99.1666 1.17877 99.1295 1.24917C99.0923 1.31958 99.031 1.36935 98.9455 1.39849C99.017 1.42693 99.0676 1.46734 99.0974 1.51971C99.1272 1.57208 99.1421 1.65203 99.1421 1.75955V1.86256C99.1421 1.93262 99.1449 1.98014 99.1505 2.00511C99.1589 2.04465 99.1786 2.07378 99.2094 2.09251V2.13101H98.8529C98.8431 2.09702 98.8361 2.06962 98.8319 2.04881C98.8235 2.0058 98.8189 1.96176 98.8182 1.91667L98.8161 1.77412C98.8147 1.67631 98.7967 1.6111 98.762 1.5785C98.7273 1.5459 98.6622 1.52959 98.5669 1.52959ZM98.7635 1.25074C98.828 1.2216 98.8603 1.16403 98.8603 1.07801C98.8603 0.985056 98.8291 0.922625 98.7667 0.890716C98.7317 0.87268 98.6791 0.863663 98.609 0.863663H98.2325V1.27571H98.5995C98.6724 1.27571 98.7271 1.26738 98.7635 1.25074Z" fill="#1C2945"/>
</g>
<defs>
<clipPath id="clip0_2300_115">
<rect width="100" height="26" fill="#1C2945"/>
</clipPath>
</defs>
</svg>
