<?xml version="1.0" encoding="UTF-8"?>
<svg id="Capa_1" data-name="Capa 1" xmlns="http://www.w3.org/2000/svg" version="1.1" viewBox="0 0 144 40">
  <defs>
    <style>
      .cls-1 {
        fill: #070e34;
        stroke-width: 0px;
      }
    </style>
  </defs>
  <path class="cls-1" d="M11.6,23h-1.8v9.1h-3.8V7.8h5.6c3.8,0,5.7,2.1,5.7,6v3.2c0,3.9-1.9,6-5.7,6h0ZM13.5,13.6c0-1.7-.7-2.3-1.9-2.3h-1.8v8.2h1.8c1.2,0,1.9-.6,1.9-2.3v-3.6h0ZM18.8,32.1V7.8h3.8v20.8h6.3v3.5h-10.1ZM35.5,32.4c-3.7,0-5.7-2.2-5.7-6.1V7.8h3.8v18.7c0,1.7.8,2.4,2,2.4s2-.6,2-2.4V7.8h3.6v18.5c0,3.9-1.9,6.1-5.7,6.1h0ZM49,22.1v-3.5h5.3v7.7c0,3.9-1.9,6.1-5.7,6.1s-5.7-2.2-5.7-6.1v-12.6c0-3.9,1.9-6.1,5.7-6.1s5.7,2.2,5.7,6.1v2.4h-3.6v-2.6c0-1.7-.8-2.4-2-2.4s-2,.7-2,2.4v13.1c0,1.7.8,2.4,2,2.4s2-.6,2-2.4v-4.5h-1.7Z"/>
  <path class="cls-1" d="M63.3,10.6h-4.3l-3,18.6h2.7l.5-3.4h3.6l.5,3.4h3l-3-18.6h0ZM61,13.9l1.4,9.4h-2.8l1.4-9.4h0Z"/>
  <polygon class="cls-1" points="73.5 29.2 76.5 29.2 76.5 10.6 73.9 10.6 73.9 21.7 70.9 10.6 67.2 10.6 67.2 29.2 69.9 29.2 69.9 15.7 73.5 29.2 73.5 29.2"/>
  <path class="cls-1" d="M78.2,29.2h4.6c2.9,0,4.4-1.6,4.4-4.6v-9.4c0-3-1.4-4.6-4.4-4.6h-4.6v18.6h0ZM82.8,13.3c.9,0,1.5.5,1.5,1.8v9.7c0,1.3-.6,1.8-1.5,1.8h-1.6v-13.3h1.6Z"/>
  <path class="cls-1" d="M94.8,23h-1.8v9.1h-3.8V7.8h5.6c3.8,0,5.7,2.1,5.7,6v3.2c0,3.9-1.9,6-5.7,6h0ZM96.7,13.6c0-1.7-.7-2.3-1.9-2.3h-1.8v8.2h1.8c1.2,0,1.9-.6,1.9-2.3v-3.6h0ZM101.9,32.1V7.8h3.8v20.8h6.3v3.5h-10.1ZM122.9,32.1l-.7-4.4h-4.7l-.7,4.4h-3.5l3.9-24.3h5.6l3.9,24.3h-3.9ZM119.9,12.1l-1.8,12.3h3.7l-1.8-12.3h0ZM133.2,24.1v8h-3.8v-8l-4.8-16.2h4l2.9,11.1,2.9-11.1h3.6l-4.8,16.2h0Z"/>
</svg>